<svg width="431" height="281" viewBox="0 0 431 281" fill="none" xmlns="http://www.w3.org/2000/svg">
<path fill-rule="evenodd" clip-rule="evenodd" d="M355.063 256.621L354.394 254.343C352.934 249.389 352.781 248.87 351.503 243.418C349.194 233.577 349.629 226.413 350.157 221.879C351.262 212.387 348.771 207.28 345.616 200.815C342.935 195.321 339.599 188.482 337.686 176.729C337.601 176.204 337.519 175.682 337.443 175.162C344.8 175.222 353.565 174.47 355.275 174.262C356.822 174.074 358.351 174.069 359.859 174.22C353.708 186.885 356.144 203.092 356.85 206.946C357.281 209.297 357.643 210.361 357.993 211.391C358.359 212.467 358.704 213.483 359.121 216.026C360.151 222.301 359.715 226.293 359.111 231.817C358.673 235.833 358.127 240.831 358.048 248.052C358.034 249.317 358.037 250.414 358.04 251.593C358.045 253.6 358.051 255.874 357.974 259.646C357.866 264.973 357.698 268.205 357.446 270.35C357.194 266.824 356.723 262.267 355.063 256.621ZM376.557 55.6131C374.877 49.8326 374.951 46.2583 376.83 42.424C379.207 37.5737 385.679 34.5509 390.409 36.0806C395.755 37.8109 397.246 44.7309 398.443 50.2914C399.179 53.7057 398.448 56.5149 397.125 59.6829C396 62.3783 393.358 66.9103 388.306 66.9823C388.266 66.9828 388.226 66.9834 388.187 66.9834C386.247 66.9834 385.233 66.2857 384.062 65.4806C383.219 64.9006 382.292 64.2623 380.975 63.884C378.411 59.6343 376.804 56.464 376.557 55.6131ZM379.95 65.2834C381.003 67.0086 382.195 68.8806 383.498 70.8246C385.136 73.2697 386.525 74.9669 387.539 76.2069C388.072 76.8577 388.62 77.528 388.817 77.8714C388.051 78.676 385.541 80.6406 382.919 80.6949C381.254 80.732 379.749 79.9806 378.483 78.4669C376.242 75.7863 374.829 71.7754 373.938 67.8628C375.989 66.0857 377.888 65.0349 379.399 65.2017C379.591 65.2229 379.775 65.2503 379.95 65.2834ZM339.786 143.045C341.591 141.528 343.455 140.202 345.294 138.895C350.269 135.358 355.413 131.701 358.631 124.582C360.203 121.104 362.161 116.775 361.52 111.253C360.94 106.246 358.813 102.919 356.891 100.001C356.805 97.4217 356.966 94.7 357.855 91.3617C358.887 87.4926 366.163 75.4343 372.577 69.1234C373.531 72.9657 374.999 76.7943 377.255 79.4931C378.848 81.3977 380.774 82.344 382.953 82.2948C386.737 82.2154 389.803 79.24 390.25 78.6571C390.909 77.7994 390.197 76.9286 388.777 75.1937C387.783 73.9789 386.423 72.3154 384.827 69.9343C384.001 68.7023 383.225 67.5034 382.502 66.3571C382.722 66.5 382.938 66.6486 383.155 66.7983C384.456 67.6937 385.791 68.6228 388.329 68.5823C392.686 68.52 396.43 65.5011 398.602 60.2994C399.846 57.3177 400.879 54.0006 400.007 49.9543C398.723 43.9926 397.126 36.5726 390.901 34.5583C385.382 32.7737 378.137 36.12 375.393 41.72C373.342 45.9046 373.237 49.9251 375.021 56.0594C375.302 57.028 376.721 59.8486 378.935 63.5931C377.331 63.672 375.499 64.6463 373.585 66.1908C372.802 62.1509 372.545 58.444 372.463 56.7137L372.454 56.5166C372.115 49.3571 371.484 36.0303 378.677 30.5C383.463 26.8206 390.716 25.9011 396.317 28.2657C407.533 33 409.891 50.1709 410.898 57.5029C411.781 63.9286 412.527 71.78 413.249 79.3726C414.265 90.0754 415.242 100.359 416.59 107.323C415.841 110.712 415.367 114.157 416.315 118.667C417.092 122.362 418.082 124.014 418.759 124.843C416.837 124.771 411.626 123.316 408.234 117.255C406.789 114.674 405.899 111.714 405.887 111.672C405.881 111.654 405.305 109.808 404.946 107.889C404.879 107.531 404.821 107.168 404.769 106.801C409.485 94.5451 413.916 76.9451 406.938 70.8086C404.17 68.3748 399.591 67.7497 397.866 69.5691C396.562 70.944 397.474 72.7554 398.737 75.2629C399.925 77.6223 401.552 80.8537 402.333 85.32C402.999 89.1371 402.931 93.1914 402.865 97.112C402.807 100.485 402.753 103.698 403.139 106.694C401.797 110.117 400.381 113.218 399.078 115.675L398.975 115.869C398.383 116.98 397.281 119.049 396.368 122C394.239 128.869 395.025 134.585 395.655 139.178C395.754 139.901 395.851 140.605 395.934 141.292C397.091 150.859 396.757 159.019 396.462 166.219C396.214 172.256 396.001 177.47 396.745 182.066C397.039 183.889 397.349 185.653 397.642 187.319C398.502 192.221 399.573 198.322 398.647 199.064C397.732 199.805 393.533 195.502 390.466 192.366C388.206 190.056 385.635 187.427 382.8 184.854C385.217 180.082 387.987 176.143 390.338 172.8C393.981 167.623 396.611 163.882 394.686 160.898C393.785 159.501 392.008 158.549 389.545 158.142C383.955 157.217 374.282 159.199 367.371 164.683C364.505 166.958 362.313 169.704 360.651 172.697C358.829 172.465 356.97 172.443 355.082 172.674C351.774 173.077 343.703 173.601 337.222 173.542C335.758 162.136 336.62 151.924 339.786 143.045ZM335.605 173.514C331.99 173.42 329.108 173.107 328.238 172.432C323.679 168.899 327.783 158.759 333.145 150.447C334.446 148.429 335.881 146.726 337.39 145.226C334.893 153.623 334.294 163.087 335.605 173.514ZM343.685 134.671C345.838 131.006 348.145 128.546 350.179 126.374C353.35 122.991 356.088 120.07 357.031 114.135C357.669 110.117 357.402 106.907 357.143 103.803C357.13 103.645 357.117 103.488 357.105 103.33C358.418 105.561 359.541 108.076 359.931 111.437C360.52 116.519 358.742 120.453 357.173 123.924C354.133 130.647 349.389 134.021 344.366 137.591C343.233 138.398 342.089 139.21 340.954 140.07C341.755 138.207 342.666 136.407 343.685 134.671ZM404.465 97.1394C404.532 93.1434 404.602 89.012 403.909 85.0451C403.087 80.3451 401.399 76.992 400.166 74.5434C399.1 72.4263 398.521 71.2029 399.026 70.6703C399.362 70.3166 400.057 70.1234 400.919 70.1234C402.405 70.1234 404.388 70.6971 405.881 72.0103C411.426 76.8863 408.69 91.1846 404.465 103.138C404.395 101.218 404.429 99.2091 404.465 97.1394ZM381.583 183.769C375.995 178.872 369.461 174.382 362.33 172.97C363.863 170.345 365.838 167.942 368.366 165.937C374.917 160.738 384.034 158.855 389.285 159.721C391.29 160.051 392.693 160.758 393.342 161.765C394.682 163.843 392.311 167.214 389.03 171.879C386.807 175.039 384.047 178.963 381.583 183.769ZM375.599 203.303C375.117 207.654 375.426 209.485 375.785 211.605C376.146 213.743 376.556 216.167 376.165 222.096C375.477 232.517 373.31 238.959 371.399 244.643C369.28 250.943 367.45 256.386 368.783 264.901C369.138 267.165 369.654 269.263 370.108 271.114C371.143 275.325 371.891 278.368 370.143 280.129C367.946 282.339 363.196 282.57 360.367 280.604C358.68 279.431 358.111 277.749 357.822 275.289C358.841 273.103 359.347 270.779 359.574 259.678C359.651 255.889 359.645 253.605 359.64 251.588C359.637 250.417 359.634 249.326 359.647 248.07C359.726 240.927 360.267 235.972 360.702 231.991C361.319 226.34 361.765 222.257 360.701 215.767C360.262 213.093 359.878 211.966 359.509 210.876C359.177 209.901 358.834 208.893 358.424 206.658C357.729 202.863 355.294 186.703 361.523 174.45C368.631 175.705 375.221 180.281 380.845 185.254C378.415 190.31 376.377 196.285 375.599 203.303ZM344.019 70.7486C342.102 69.5886 340.426 68.7051 338.913 67.9903C332.385 63.9166 325.407 57.5503 319.099 49.5349C317.954 48.0806 316.863 44.948 315.708 41.6309C313.495 35.2771 311.214 28.6909 307.156 29.1834C305.302 29.4023 304.511 30.9097 303.891 33.012C303.421 33.208 302.961 33.4274 302.514 33.6394C301.143 34.292 299.846 34.9097 299.151 34.4406C298.541 34.0297 298.151 32.8069 298.158 31.3251C298.167 29.4354 298.849 27.0834 300.355 26.0903C304.102 23.6166 307.255 21.9874 310.848 25.3097C316.023 30.0954 321.698 38.0663 327.716 49C329.883 52.9371 333.819 54.0909 340.059 55.6463C347.148 57.4137 352.558 57.5194 356.509 57.5966C360.761 57.6794 362.845 57.7874 363.773 59.3189C364.424 60.396 364.49 62.1291 363.952 64.0737C363.039 67.3714 360.661 70.5217 358.032 71.9126C354.486 73.7874 349.551 73.2468 344.019 70.7486ZM326.173 62.2714C326.061 62.1971 325.901 62.1034 325.698 61.9857C323.749 60.8577 317.819 57.4251 314.693 46.1006C314.661 45.984 311.338 34.3566 308.355 32.7829C307.78 32.48 307.19 32.3571 306.597 32.3571C306.323 32.3571 306.05 32.3829 305.776 32.4291C306.172 31.424 306.631 30.8566 307.344 30.7726C310.097 30.4554 312.379 36.9383 314.197 42.1571C315.397 45.604 316.531 48.86 317.841 50.524C322.489 56.4303 327.443 61.4303 332.337 65.3189C330.263 64.5269 328.359 63.72 326.173 62.2714ZM236.686 97.5131L236.646 97.636C235.915 99.8434 235.177 101.706 234.525 103.35C233.562 105.779 232.733 107.869 232.2 110.257C231.114 109.637 230.382 108.957 230.023 108.166C229.298 106.567 230.59 104.381 231.362 103.074C231.564 102.731 231.739 102.435 231.853 102.194C235.894 93.5954 238.031 85.76 239.749 79.464C240.112 78.1309 240.457 76.8646 240.798 75.6674C240.527 85.916 238.822 91.0646 236.686 97.5131ZM240.431 114.75C244.021 115.668 260.719 118.283 271.036 117.991C271.469 118.329 271.939 118.65 272.446 118.957C276.26 121.257 280.393 124.627 282.127 132.182C283.001 135.99 280.965 140.274 278.958 142.785L277.831 144.191C270.368 153.514 265.863 159.142 265.398 162.011C264.914 164.995 265.655 167.107 266.308 168.969C267.001 170.944 267.548 172.504 266.451 174.67C265.175 177.193 263.307 177.905 262.563 178.094C261.613 178.335 260.919 178.178 260.588 177.949C260.308 177.755 260.374 176.822 260.427 176.072C260.521 174.756 260.637 173.119 259.415 172.164C258.925 171.781 258.396 171.646 257.86 171.646C257.175 171.646 256.478 171.866 255.829 172.07C254.807 172.392 253.842 172.698 252.947 172.304C251.643 171.731 251.228 169.798 250.227 165.124L250.018 164.15C248.727 158.161 247.534 155.391 246.96 154.06C246.873 153.859 246.799 153.688 246.74 153.541C245.77 151.119 244.874 149.499 244.083 148.07C242.986 146.088 242.119 144.522 241.545 141.641C241.486 141.348 241.437 141.075 241.395 140.821C244.755 142.885 248.817 143.564 252.365 142.636C252.431 142.619 252.488 142.606 252.537 142.595C252.497 142.889 252.398 143.325 252.313 143.697C252.077 144.737 251.753 146.161 251.695 147.905C251.586 151.165 251.746 152.23 253.827 157.125C254.621 158.991 255.527 160.55 256.383 161.883C256.221 163.318 256.31 164.845 256.575 166.183C256.811 167.37 257.395 169.413 258.664 169.762C258.989 169.851 259.627 169.899 260.244 169.213C261.97 167.294 260.605 165.282 258.874 162.736C258.611 162.349 258.333 161.938 258.046 161.502C258.269 160.196 258.742 159.175 259.414 158.654C260.95 157.461 264.952 150.479 266.94 144.975C268.096 141.774 267.735 138.695 265.975 136.739C264.367 134.952 261.816 134.327 258.974 135.025C255.9 135.78 255.34 136.091 253.485 137.119C253.21 137.273 252.903 137.442 252.554 137.633C251.301 138.317 248.334 139.289 246.083 138.074C245.05 137.517 244.373 137.009 243.829 136.601C243.036 136.005 242.41 135.535 241.536 135.752C240.544 135.998 240.014 136.655 239.774 137.537C236.686 134.528 234.636 129.924 233.797 124.047C233.075 118.999 233.028 115.499 233.417 112.611C235.239 113.345 237.561 114.016 240.431 114.75ZM271.038 96.9994C272.158 101.603 274.264 107.441 277.73 114.602C277.889 114.93 277.799 115.038 277.734 115.118C277.081 115.918 274.804 116.311 271.652 116.419C266.071 111.603 268.221 103.448 271.038 96.9994ZM272.545 85.4131C272.702 85.2297 272.847 85.1371 272.979 85.1371C273.006 85.1371 273.033 85.1411 273.058 85.1486C273.361 85.24 273.866 85.8491 274.031 87.1514C273.97 87.5526 273.206 89.0171 272.53 90.312C272.277 90.7966 272.006 91.3177 271.723 91.8691C271.338 88.2788 271.852 86.2246 272.545 85.4131ZM259.055 168.143C259.046 168.153 259.037 168.161 259.03 168.169C258.723 167.879 258.165 166.678 257.966 164.652C257.951 164.498 257.938 164.346 257.929 164.195C259.397 166.392 259.809 167.305 259.055 168.143ZM256.891 159.65C256.34 158.706 255.794 157.662 255.3 156.499C253.247 151.671 253.197 150.884 253.294 147.959C253.347 146.366 253.651 145.029 253.873 144.051C254.168 142.755 254.363 141.899 253.762 141.318C253.485 141.049 253.142 140.961 252.794 140.961C252.508 140.961 252.219 141.021 251.96 141.088C250.733 141.409 246.376 142.221 241.826 139.198C241.619 139.061 241.417 138.918 241.218 138.77C241.258 137.47 241.725 137.354 241.922 137.305C242.057 137.273 242.434 137.554 242.869 137.881C243.425 138.297 244.186 138.868 245.322 139.482C248.173 141.02 251.691 139.926 253.321 139.037C253.674 138.845 253.982 138.673 254.261 138.519C256.061 137.52 256.489 137.283 259.356 136.579C261.638 136.019 263.567 136.454 264.785 137.809C266.145 139.319 266.387 141.795 265.435 144.431C263.408 150.045 259.495 156.565 258.432 157.391C257.737 157.93 257.233 158.722 256.891 159.65ZM239.36 16.9286C238.77 16.6154 238.33 16.2891 238.127 16.0354C238.258 16.0023 238.462 15.9686 238.771 15.9566C238.934 15.9509 238.986 15.9983 239.036 16.0571C239.191 16.2377 239.297 16.5349 239.36 16.9286ZM237.851 29.0783C237.85 29.0806 237.85 29.0829 237.849 29.0851C237.689 28.476 237.518 27.8177 237.338 27.1063C236.429 23.5286 236.078 21.6766 235.846 20.4509C235.546 18.864 235.433 18.2703 234.611 16.492C234.293 15.8023 233.959 15.1314 233.634 14.4789C232.532 12.2651 231.58 10.3537 231.747 8.78286C231.989 6.50571 233.693 4.27486 235.251 3.248C235.659 2.97886 236.058 2.792 236.412 2.69772C235.273 3.56229 234.328 4.528 233.915 5.37543C233.416 6.39886 233.738 7.08229 233.974 7.39829C234.745 8.43086 236.766 8.632 240.336 8.03429C242.046 7.74743 242.365 6.756 242.403 6.19086C242.485 4.96514 241.304 3.47543 239.943 2.40972C240.697 2.05543 241.392 1.83086 241.895 1.82057C241.91 1.82 241.924 1.82 241.939 1.82C244.287 1.82 247.329 5.84286 247.878 9.69714C248.348 12.9977 248.177 17.0954 244.689 17.8697C243.474 18.14 242.156 17.9629 241.014 17.6103C240.961 16.4229 240.722 15.5617 240.247 15.0114C239.858 14.56 239.329 14.3337 238.71 14.3577C237.471 14.4051 236.725 14.7806 236.488 15.4726C236.331 15.9354 236.363 16.6709 237.416 17.5486C237.927 17.9754 238.619 18.3863 239.417 18.7263C239.297 21.3526 238.543 25.38 237.851 29.0783ZM238.408 3.26C239.681 4.09143 240.849 5.44686 240.806 6.084C240.791 6.31772 240.24 6.428 240.071 6.456C235.805 7.17143 235.257 6.444 235.253 6.43714C235.241 6.40629 235.25 6.19429 235.519 5.792C236.061 4.98 237.197 4.028 238.408 3.26ZM160.307 236.757C162.361 234.18 166.901 233.123 168.314 233.267C167.53 234.965 165.753 236.369 163.663 236.906C162.37 237.238 161.17 237.178 160.307 236.757ZM165.301 191.004C165.746 187.529 168.126 184.825 169.14 184.157C169.337 185.439 169.03 189.895 166.89 200.341C165.775 196.655 164.987 193.461 165.301 191.004ZM167.162 206.605C167.9 209.023 168.626 211.573 169.217 214.271C168.199 214.118 167.561 213.78 166.934 212.887C166.108 211.708 166.274 210.549 167.162 206.605ZM190.833 155.375C192.426 155.577 193.933 155.85 195.352 156.107C196.627 156.339 197.857 156.562 199.028 156.704C202.419 165.003 201.149 184.117 198.101 196.619C197.087 200.775 195.973 204.246 194.99 207.307C193.538 211.825 192.285 215.728 191.825 220.269C191.109 219.966 190.333 219.609 189.485 219.218C186.893 218.024 183.667 216.538 179.581 215.522C175.881 214.602 173.265 214.497 171.356 214.42C171.189 214.414 171.029 214.407 170.874 214.401C170.021 210.377 168.878 206.701 167.864 203.473C167.986 202.916 168.113 202.325 168.244 201.697C172.085 183.272 170.65 182.77 169.791 182.469C169.384 182.325 168.919 182.422 168.372 182.76C166.783 183.743 164.203 186.978 163.714 190.801C163.28 194.192 164.633 198.527 166.21 203.545C166.043 204.301 165.887 204.989 165.744 205.621C164.732 210.086 164.313 211.934 165.624 213.805C166.704 215.346 167.927 215.763 169.557 215.919C170.017 218.306 170.358 220.806 170.501 223.43C170.596 225.185 170.858 227.636 171.292 231.696C171.841 236.83 172.671 244.589 173.751 256.533C175.935 280.671 175.289 286.476 174.862 290.317C174.771 291.131 174.686 291.899 174.635 292.735C174.387 296.878 173.158 299.974 172.158 302.465C172.848 299.56 173.027 296.126 172.385 292.067C171.586 287.019 170.555 284.509 168.294 279.007C166.947 275.73 165.103 271.242 162.6 264.453C157.381 250.294 158.07 241.631 159.506 238.147C160.726 238.783 162.33 238.9 164.061 238.456C166.252 237.893 168.959 236.27 169.986 233.401C170.205 232.789 169.935 232.184 169.315 231.895C167.696 231.139 161.646 232.454 158.998 235.838C158.596 235.59 158.171 235.389 157.732 235.179C156.283 234.491 154.786 233.781 153.499 231.072C151.364 226.577 146.686 208.25 143.137 193.666C141.665 187.618 139.874 182.865 138.567 179.394C137.211 175.795 136.141 172.953 136.939 172.344C137.43 171.968 138.606 172.602 140.094 173.402C141.95 174.402 144.493 175.771 147.837 176.335C154.798 177.508 160.43 174.482 169.046 169.445C181.159 162.364 187.413 157.861 190.833 155.375ZM196.004 152.946C196.83 153.322 197.542 154.014 198.149 154.969C197.357 154.845 196.521 154.693 195.638 154.533C194.698 154.363 193.722 154.186 192.709 154.025C194.791 152.563 195.133 152.549 196.004 152.946ZM202.306 156.818C202.579 158.33 202.844 159.873 203.099 161.444C203.104 161.595 203.122 161.817 203.148 162.125C204.195 174.33 201.455 197.134 198.973 214.116C198.91 214.541 198.899 215.045 198.886 215.629C198.842 217.566 198.787 219.978 196.931 220.898C195.915 221.401 194.775 221.309 193.382 220.859C193.792 216.268 195.05 212.352 196.513 207.797C197.505 204.709 198.629 201.21 199.655 196.998C202.387 185.793 204.191 166.477 200.747 156.847C201.282 156.868 201.802 156.861 202.306 156.818ZM193.505 115.782C188.547 99.5886 185.554 89.8143 191.186 83.9657C191.594 83.5417 193.498 82.6994 195.765 81.7114C193.962 90.992 195.407 102.307 197.205 112.199C199.202 123.188 202.109 131.595 204.231 137.734C206.981 145.687 208.641 150.488 205.963 153.453C205.272 154.217 204.484 154.696 203.593 154.969C200.597 138.943 196.704 126.229 193.505 115.782ZM194.074 236.597C195.122 239.237 196.205 241.965 196.488 246.762C196.974 254.998 194.287 262.077 192.509 266.76C191.918 268.316 191.408 269.659 191.131 270.73C190.107 274.689 189.103 278.06 188.217 281.035C185.543 290.012 183.929 295.43 186.829 301.12C187.005 301.465 187.21 301.824 187.425 302.201C188.298 303.726 189.286 305.457 189.106 307.782C188.883 310.652 188.809 311.618 182.493 311.697C176.372 311.783 173.445 309.678 172.988 309.113C171.853 307.708 172.39 306.182 173.612 303.138C174.661 300.526 175.966 297.275 176.233 292.831C176.28 292.036 176.359 291.322 176.452 290.494C176.913 286.355 177.543 280.688 175.345 256.389C174.263 244.433 173.433 236.665 172.883 231.526C172.452 227.491 172.191 225.057 172.098 223.343C171.961 220.804 171.634 218.355 171.197 216.015C171.228 216.017 171.26 216.018 171.292 216.019C173.132 216.093 175.653 216.194 179.195 217.075C183.135 218.055 186.285 219.506 188.815 220.671C189.849 221.147 190.802 221.586 191.694 221.943C191.584 223.95 191.631 226.101 191.881 228.489C192.248 231.997 193.177 234.335 194.074 236.597ZM203.443 69.8217C207.158 66.3554 211.354 65.452 214.718 65.452C216.287 65.452 217.675 65.6486 218.749 65.8731C221.958 66.5446 223.875 67.74 224.348 68.2526C223.985 68.42 223.213 68.6549 222.405 68.9011C219.377 69.8246 213.739 71.5429 203.437 76.488C201.469 77.4331 199.673 78.2474 198.074 78.9543C199.153 75.3571 200.869 72.2223 203.443 69.8217ZM174.235 318.343C173.454 318.73 172.33 319.175 171.112 319.469C168.907 320.001 166.714 319.937 164.827 319.603C168.901 318.909 172.382 318.405 174.235 318.343ZM160.573 32.8509C159.746 30.6954 158.717 28.0126 156.373 27.0234C154.238 26.1234 152.268 27.1057 150.362 28.0566C148.561 28.956 146.86 29.8057 145.035 29.1577C143.942 28.7703 143.269 28.0057 142.675 27.332C141.987 26.5509 141.206 25.6669 139.959 25.8983C137.819 26.2966 137.002 29.5423 136.282 32.4057C135.577 35.2114 135.37 37.5051 135.22 39.1794C135.093 40.596 134.973 41.9337 134.611 42.0766C134.259 42.2143 133.424 41.4846 132.871 41C132.524 40.6966 132.161 40.3777 131.782 40.1223C131.502 38.9931 131.266 37.7686 131.113 36.4526L131.095 36.3017C130.795 33.7406 130.645 32.4549 130.928 30.7606C131.709 26.0823 133.111 25.748 134.597 25.3943C135.829 25.1011 137.362 24.736 138.111 22.1623C138.385 21.2223 139.278 20.328 140.695 19.576C143.832 17.9126 149.101 17.2646 151.972 18.1909C156.91 19.784 159.194 25.12 160.24 29.316C160.636 30.9046 160.836 32.2983 160.866 33.684C160.779 33.4109 160.682 33.1326 160.573 32.8509ZM133.295 49.3069C133.111 49.28 132.702 49.1549 131.968 48.6257C130.309 47.4297 129.639 44.8046 129.836 42.8297C129.942 41.7663 130.265 41.2777 130.397 41.2177C130.402 41.2166 130.407 41.216 130.412 41.216C131.045 43.5514 131.832 45.4491 132.427 46.8846C132.813 47.8149 133.245 48.8549 133.295 49.3069ZM418.643 105.565C419.5 101.978 420.472 97.9137 420.281 92.168C420.124 87.4371 418.807 83.4669 417.935 80.8394C417.684 80.0828 417.41 79.2571 417.277 78.6994C418.237 79.4754 420.043 81.6594 421.676 84.072C425.534 89.7811 426.938 94.5308 428.295 99.1246C429.523 103.281 430.794 107.578 433.871 112.365C435.13 114.32 435.721 114.851 436.614 115.655C437.577 116.519 438.894 117.703 441.973 121.523C446.453 127.083 448.443 130.535 450.55 134.189C452.579 137.707 454.676 141.345 459.097 147.214L459.808 148.153C461.803 150.781 463.867 153.499 466.035 157.744C468.757 163.073 469.785 167.166 469.089 169.909C468.101 173.803 465.053 176.382 464.239 176.382C463.797 175.729 464.299 172.352 464.543 170.713C464.997 167.663 465.204 166.271 464.11 165.96C463.121 165.677 462.608 166.747 461.753 168.516C461.376 169.297 460.634 170.831 460.157 171.282C459.959 170.723 459.87 169.265 459.791 167.959C459.579 164.472 459.258 159.203 456.82 154.174C455.597 151.652 454.677 150.892 450.258 147.24C447.881 145.276 444.627 142.587 439.745 138.338C430.642 130.415 427.576 127.247 424.831 122.93C423.2 120.362 422.113 118.039 419.946 113.411C419.31 112.051 418.743 109.957 418.226 107.337C418.358 106.754 418.499 106.165 418.643 105.565ZM519.486 313.354C491.554 294.417 439.579 285.447 365.013 286.713C357.556 286.838 352.051 285.683 351.591 283.902C351.432 283.286 352.044 282.642 353.231 281.465C354.203 280.499 355.438 279.274 356.581 277.523C357.022 279.35 357.823 280.784 359.454 281.917C362.911 284.321 368.547 284.006 371.278 281.255C373.659 278.858 372.778 275.272 371.662 270.731C371.215 268.912 370.707 266.85 370.364 264.654C369.091 256.525 370.779 251.506 372.916 245.153C374.858 239.377 377.059 232.83 377.761 222.201C378.165 216.085 377.738 213.563 377.362 211.338C377.024 209.337 376.731 207.608 377.189 203.48C377.929 196.807 379.793 191.173 382.067 186.354C384.74 188.8 387.177 191.291 389.322 193.485C394.487 198.765 397.605 201.953 399.65 200.312C401.242 199.033 400.632 195.102 399.218 187.042C398.926 185.383 398.618 183.626 398.324 181.811C397.606 177.373 397.817 172.235 398.06 166.284C398.358 159.025 398.695 150.796 397.522 141.1C397.439 140.405 397.341 139.692 397.24 138.96C396.599 134.293 395.873 129.003 397.896 122.473C398.765 119.667 399.78 117.761 400.387 116.621L400.491 116.425C401.406 114.699 402.518 112.33 403.665 109.565C403.995 110.983 404.341 112.091 404.36 112.151L404.371 112.147C404.593 112.986 405.55 115.736 406.838 118.036C409.799 123.329 414.382 125.794 417.683 126.335C418.609 126.487 419.838 126.553 420.447 126.002C420.561 125.899 420.863 125.627 420.874 125.189C420.885 124.75 420.613 124.478 420.393 124.259C419.913 123.778 418.788 122.653 417.881 118.338C417.323 115.682 417.286 113.446 417.517 111.333C417.823 112.419 418.15 113.345 418.498 114.089C420.693 118.779 421.794 121.133 423.481 123.788C426.324 128.262 429.453 131.501 438.694 139.545C443.591 143.807 446.855 146.504 449.239 148.474C453.535 152.024 454.309 152.663 455.38 154.872C457.681 159.616 457.99 164.695 458.194 168.056C458.375 171.025 458.484 172.817 459.906 172.978C461.261 173.135 462.174 171.321 463.123 169.358C463.07 169.741 463.013 170.127 462.961 170.477C462.345 174.611 462.079 177.17 463.559 177.845C464.05 178.07 464.646 178.016 465.33 177.688C467.253 176.766 469.765 173.751 470.64 170.302C470.936 169.135 471.837 165.583 467.461 157.016C465.227 152.645 463.121 149.869 461.083 147.185L460.375 146.251C456.013 140.461 453.941 136.866 451.936 133.389C449.798 129.68 447.777 126.177 443.218 120.519C440.059 116.599 438.686 115.366 437.684 114.465C436.83 113.697 436.359 113.274 435.218 111.499C432.263 106.905 431.081 102.905 429.829 98.6709C428.438 93.9611 426.998 89.0903 423.001 83.176C418.141 75.9937 416.73 76.7029 416.267 76.936C415.141 77.4994 415.594 78.8651 416.417 81.3434C417.259 83.8829 418.533 87.7211 418.682 92.2211C418.835 96.8143 418.237 100.202 417.529 103.314C416.491 96.5891 415.657 87.8177 414.841 79.2211C414.118 71.612 413.37 63.744 412.483 57.2857C411.439 49.6829 408.994 31.88 396.939 26.7914C390.834 24.2143 382.923 25.2171 377.702 29.2314C369.846 35.2714 370.503 49.1411 370.855 56.5926L370.865 56.7886C370.976 59.1423 371.291 63.1828 372.183 67.4086C365.039 74.0291 357.288 87.2777 356.31 90.9497C355.661 93.3868 355.382 95.536 355.301 97.5177C353.913 95.196 352.947 92.8474 353.203 89.6257C353.355 87.7188 353.95 86.2057 354.526 84.7423C355.403 82.5149 356.231 80.4109 355.172 77.5829C354.709 76.3474 353.435 75.3857 351.929 74.5909C354.494 74.7737 356.808 74.3703 358.779 73.3263C361.821 71.7183 364.456 68.2537 365.494 64.5006C366.158 62.0983 366.033 59.964 365.141 58.4897C363.717 56.1371 360.862 56.0811 356.539 55.9966C352.666 55.9211 347.36 55.8171 340.447 54.0943C334.45 52.5994 330.967 51.5897 329.118 48.2286C323.017 37.144 317.235 29.0377 311.934 24.1354C307.135 19.6971 302.525 22.7411 299.473 24.7549C297.338 26.1646 296.568 29.1709 296.558 31.3177C296.548 33.4114 297.167 35.0337 298.257 35.7674C299.71 36.7463 301.485 35.9017 303.202 35.0846C303.256 35.0589 303.31 35.0331 303.365 35.0069C303.361 35.0229 303.357 35.0383 303.353 35.0537C302.722 37.5874 301.936 40.7406 299.977 43.6926C298.689 45.6354 297.601 47.6143 296.224 50.1194C294.937 52.4611 293.334 55.3754 291.1 59.0777C291.073 59.1211 288.394 63.5371 283.473 69.9291C282.48 71.2189 280.134 74.2451 279.601 74.0777C278.583 73.788 277.882 73.2291 277.454 72.3691C276.561 70.5766 276.892 67.3743 278.361 63.5834C278.994 61.9514 280.719 59.9057 282.717 57.5366C284.059 55.944 285.448 54.2971 286.728 52.5177C286.786 52.4377 292.195 44.2109 290.592 42.5497C290.281 42.2269 289.699 41.9817 288.699 42.6474C285.783 44.5926 280.165 44.7131 277.567 42.8886C276.618 42.2223 276.275 41.4177 276.519 40.4297C276.947 38.6983 276.71 37.2406 275.817 36.0983C273.455 33.0817 267.111 33.0794 261.515 33.0771C260.222 33.0766 258.999 33.076 257.92 33.036C253.619 32.8629 250.79 35.744 249.73 41.3337C248.389 48.4063 250.409 59.0469 252.642 59.8297C253.128 60.0006 253.803 59.8874 254.242 59.0583C254.75 58.1006 254.917 57.068 255.095 55.9754C255.454 53.7663 255.862 51.2629 259.4 48.56C261.526 46.9366 265.278 46.1034 268.336 47.6537C271.679 49.3474 273.384 53.4354 273.267 59.4754C273.181 63.8526 271.197 70.4794 267.21 70.8011C260.388 71.3554 256.241 67.776 252.914 64.9017C250.233 62.5869 247.918 60.5886 245.458 62.696C244.2 63.7743 243.187 65.1743 242.317 66.8491C242.251 65.1617 242.159 63.3657 242.037 61.4509C241.903 59.3389 241.958 56.6497 242.015 53.8029C242.105 49.4051 242.197 44.8583 241.599 41.8314C241.083 39.2166 240.754 38.3206 240.256 36.964C239.905 36.0057 239.473 34.8291 238.823 32.6114C239.023 31.5114 239.226 30.4257 239.423 29.3726C240.236 25.0331 240.837 21.6874 240.988 19.2606C242.846 19.7406 244.948 19.7669 246.605 18.8434C248.377 17.856 250.311 15.4286 249.462 9.47143C248.856 5.22 245.318 0.130857 241.861 0.219401C240.923 0.240571 239.644 0.716574 238.376 1.41829C238.136 1.30286 237.903 1.20972 237.684 1.14172C236.742 0.851431 235.565 1.124 234.37 1.912C232.557 3.10743 230.464 5.71486 230.156 8.61372C229.94 10.6491 231.038 12.856 232.202 15.192C232.52 15.8309 232.847 16.488 233.159 17.1629C233.898 18.7617 233.985 19.2229 234.274 20.7486C234.51 21.9931 234.867 23.8749 235.787 27.4994C236.34 29.6789 236.797 31.3617 237.182 32.6977C236.545 36.252 235.959 39.944 235.763 43.2011C235.734 43.6954 235.708 44.1909 235.682 44.6874C235.447 49.1383 235.226 53.3423 232.534 57.0509C231.465 58.5229 228.583 61.8629 224.918 61.0714C223.154 60.6914 221.91 59.2234 221.177 58.0589C219.166 54.8657 218.405 49.9451 219.326 46.0931C219.713 44.4811 220.22 43.7423 221.231 42.2709C221.955 41.2183 222.946 39.7766 224.265 37.4411C227.402 31.8886 229.19 27.5537 228.822 26.3977C228.741 26.1457 228.572 25.9486 228.346 25.8417C228.138 25.7446 227.865 25.7406 227.654 25.832C227.221 26.0194 227.107 26.3669 226.734 27.5166C225.742 30.5714 223.107 38.6863 214.547 44.6606C206.245 50.4537 196.127 51.964 187.2 53.2954C181.597 54.1314 176.759 54.8537 173.207 56.512C166.783 59.512 166.196 58.7223 165.223 57.4154C165.093 57.2406 164.958 57.06 164.811 56.8783C163.42 55.1617 164.033 47.0886 164.434 45.7977C166.261 43.8954 166.161 40.4074 165.656 38.6206C165.36 37.5731 164.905 36.9743 164.303 36.84C163.51 36.6646 162.968 37.3097 162.511 38.0154C162.501 36.6937 162.485 35.3063 162.469 33.848C162.452 32.2743 162.237 30.7114 161.793 28.9286C160.649 24.3394 158.101 18.4869 152.463 16.668C149.193 15.6137 143.461 16.2977 139.946 18.1629C138.138 19.1223 136.972 20.3503 136.575 21.7149C136.086 23.3954 135.346 23.5714 134.226 23.8377C132.081 24.3486 130.234 25.2023 129.35 30.4971C129.029 32.4154 129.198 33.8617 129.506 36.488L129.523 36.6383C129.648 37.7051 129.823 38.7126 130.03 39.6583C129.933 39.6823 129.834 39.716 129.735 39.7611C128.924 40.1297 128.394 41.1629 128.244 42.6709C128.01 45.0269 128.782 48.3017 131.033 49.924C131.545 50.2931 133.103 51.4149 134.266 50.6634C135.417 49.9171 134.816 48.4669 133.905 46.272C133.516 45.3331 133.042 44.1903 132.587 42.8537C133.384 43.4771 134.256 43.9394 135.202 43.564C136.478 43.0577 136.611 41.5714 136.814 39.3229C136.959 37.7011 137.159 35.4794 137.834 32.796C138.346 30.7594 139.12 27.6817 140.252 27.4714C140.579 27.412 140.858 27.6903 141.475 28.3897C142.125 29.128 143.016 30.1389 144.5 30.6657C146.966 31.5411 149.15 30.4509 151.077 29.488C152.803 28.6263 154.292 27.8811 155.751 28.4977C157.467 29.2217 158.323 31.4543 159.08 33.4257C159.766 35.2143 159.971 36.8886 160.121 38.1114C160.266 39.3017 160.38 40.2314 160.923 40.6714C160.935 50.8931 160.394 56.5337 156.851 59.8611C154.568 62.0057 152.175 62.8291 149.74 62.3069C146.145 61.5366 143.106 59.1731 141.095 57.6086C139.285 56.2006 138.192 55.3497 137.262 56.0446C136.531 56.5891 136.812 57.516 137.11 58.4966C137.421 59.5183 137.845 60.9171 137.517 62.3543C137.067 64.3206 132.125 67.1726 127.345 69.9309C121.241 73.4537 114.321 77.4469 111.086 82.1583C105.041 90.9646 102.518 96.6748 100.293 101.713C97.2303 108.646 94.8114 114.122 84.512 124.65C80.9771 128.263 66.4594 150.438 62.1932 159.861C58.5737 167.854 57.6663 175.192 59.4943 181.67C60.4126 184.923 62.0263 187.966 63.1686 188.597C63.5337 188.799 63.84 188.773 64.0332 188.717C65.0829 188.409 64.9229 187.123 64.6046 184.561C64.2663 181.841 63.7006 177.288 65.4109 176.226C66.0977 175.8 67.1783 175.925 67.8914 176.267C69.2812 176.935 69.6966 178.746 69.9994 180.068C70.2612 181.209 70.4869 182.194 71.4377 182.251C71.8617 182.275 72.2749 182.062 72.6606 181.612C74.0914 179.943 76.212 173.517 74.6303 166.222C74.2629 164.529 73.8726 163.643 73.588 162.995C73.3229 162.394 73.1772 162.063 73.172 161.366C73.1383 157.067 78.2954 153.589 85.4326 148.774C87.5286 147.36 89.696 145.898 91.9869 144.247C94.1577 142.682 105.483 134.155 115.261 119.891C117.921 116.01 119.63 112.838 120.879 110.522C122.563 107.397 123.491 105.675 124.938 105.323C125.547 105.176 126.174 105.306 126.851 105.721C130.061 107.69 133.669 115.732 136.266 126.71C138.361 135.568 137.25 143.265 136.358 149.45C135.462 155.659 134.755 160.563 137.988 163.445C144.63 169.367 155.045 168.38 155.147 168.369C160.478 167.769 163.297 165.521 166.561 162.919C168.667 161.241 170.845 159.505 174.013 157.956C179.382 155.331 184.182 154.868 188.425 155.142C184.788 157.751 178.723 161.935 168.238 168.063C159.933 172.918 154.517 175.839 148.103 174.757C145.019 174.238 142.709 172.993 140.852 171.993C138.857 170.919 137.281 170.071 135.968 171.071C134.223 172.403 135.234 175.086 137.07 179.958C138.362 183.39 140.133 188.09 141.582 194.045C145.149 208.701 149.861 227.14 152.054 231.758C153.585 234.982 155.503 235.893 157.046 236.625C157.459 236.822 157.837 237.001 158.169 237.207C156.095 241.698 156.213 251.75 161.099 265.006C163.612 271.823 165.463 276.327 166.814 279.615C169.026 284.998 170.035 287.455 170.805 292.318C173.191 307.41 163.757 313.057 159.729 315.469C158.42 316.252 157.878 316.577 157.806 317.202C157.746 317.73 158.011 318.259 158.595 318.775C158.694 318.863 158.803 318.951 158.921 319.038C155.16 319.734 150.607 320.613 145.09 321.705C141.778 322.362 138.917 322.928 136.899 323.299C129.197 324.715 59.9543 336.11 1.3783 300.399C1.00059 300.17 0.509156 300.289 0.278298 300.666C0.0480127 301.043 0.167439 301.535 0.545153 301.765C22.9092 315.399 49.3554 323.787 79.1491 326.694C87.196 327.48 94.7412 327.781 101.584 327.781C119.557 327.781 132.671 325.703 137.189 324.873C139.217 324.499 142.083 323.932 145.401 323.274C149.734 322.417 155.707 321.233 161.202 320.241C163.878 321.288 167.799 321.913 171.487 321.025C173.213 320.608 176.053 319.519 176.664 318.501C176.864 318.168 176.848 317.873 176.799 317.685C176.493 316.495 174.771 316.179 161.367 318.592C160.456 318.201 159.806 317.791 159.525 317.477C159.779 317.303 160.182 317.062 160.55 316.842C163.037 315.353 168.125 312.308 170.89 306.193C170.611 307.609 170.751 308.891 171.743 310.118C172.48 311.03 175.841 313.373 182.513 313.297C189.587 313.209 190.41 311.668 190.701 307.906C190.92 305.089 189.752 303.047 188.814 301.406C188.612 301.054 188.419 300.717 188.254 300.393C185.645 295.273 187.103 290.378 189.75 281.491C190.64 278.504 191.649 275.118 192.68 271.131C192.935 270.145 193.431 268.839 194.005 267.328C195.831 262.517 198.591 255.246 198.085 246.669C197.787 241.614 196.655 238.764 195.561 236.007C194.664 233.746 193.817 231.611 193.473 228.323C193.251 226.216 193.197 224.298 193.274 222.497C194.864 222.958 196.273 223.011 197.642 222.331C200.365 220.981 200.437 217.782 200.485 215.665C200.497 215.133 200.507 214.675 200.555 214.347C203.05 197.282 205.802 174.346 204.742 161.989C204.717 161.693 204.698 161.494 204.698 161.372C204.698 161.329 204.695 161.286 204.688 161.243C204.429 159.647 204.159 158.082 203.882 156.547C205.094 156.214 206.19 155.587 207.15 154.525C210.462 150.859 208.686 145.722 205.743 137.211C203.521 130.782 200.754 122.782 198.779 111.913C196.937 101.774 195.455 90.1166 197.554 80.9314C199.439 80.1063 201.646 79.1228 204.13 77.9309C214.322 73.0377 219.884 71.3428 222.872 70.432C225.119 69.7468 226.246 69.4034 226.028 68.1246C225.811 66.852 223.502 65.6451 221.415 64.9406C218.815 64.064 209.761 61.7394 202.351 68.6514C199.249 71.5463 197.31 75.3891 196.197 79.7783C195.97 79.8771 195.75 79.9731 195.534 80.0674C192.173 81.5303 190.661 82.2046 190.033 82.856C183.749 89.3828 186.845 99.496 191.975 116.25C195.161 126.653 199.037 139.312 202.016 155.246C201.405 155.287 200.755 155.27 200.064 155.21C199.194 153.427 198.075 152.13 196.666 151.489C194.742 150.614 193.778 151.259 190.405 153.709C185.515 153.154 179.839 153.327 173.311 156.519C169.985 158.145 167.636 160.017 165.564 161.668C162.493 164.116 159.841 166.23 154.968 166.778C152.472 167.059 144.191 166.831 139.053 162.251C136.461 159.941 137.082 155.636 137.942 149.678C138.853 143.359 139.988 135.495 137.822 126.342C136.511 120.796 132.897 107.552 127.688 104.357C126.643 103.717 125.591 103.518 124.56 103.769C122.421 104.288 121.31 106.349 119.47 109.762C118.239 112.047 116.553 115.175 113.941 118.986C104.314 133.031 93.1846 141.411 91.0514 142.949C88.7812 144.585 86.624 146.041 84.5377 147.447C76.9874 152.541 71.5314 156.221 71.572 161.378C71.58 162.406 71.832 162.978 72.1234 163.641C72.3954 164.258 72.7337 165.026 73.0669 166.561C74.4617 172.995 72.7372 178.641 71.6909 180.267C71.6446 180.083 71.5989 179.884 71.5594 179.711C71.2046 178.164 70.6686 175.826 68.5834 174.825C67.4754 174.293 65.804 174.099 64.5675 174.867C61.9863 176.469 62.5817 181.259 63.0166 184.758C63.0777 185.25 63.1452 185.796 63.192 186.274C62.556 185.284 61.6874 183.549 61.0343 181.235C59.3109 175.131 60.1914 168.161 63.6509 160.521C68.1257 150.637 82.5309 128.963 85.6554 125.769C96.1577 115.034 98.6286 109.441 101.757 102.359C103.954 97.3851 106.444 91.7474 112.406 83.064C115.435 78.6514 122.187 74.7549 128.145 71.3166C133.915 67.9874 138.471 65.3577 139.077 62.7109C139.5 60.8589 138.983 59.1577 138.641 58.032C138.61 57.9291 138.575 57.816 138.543 57.7029C138.991 57.9994 139.593 58.4669 140.113 58.8714C142.239 60.5251 145.451 63.024 149.405 63.8714C151.454 64.3103 154.598 64.1731 157.946 61.0274C161.942 57.2737 162.534 51.348 162.523 40.6531C162.963 40.3229 163.31 39.7611 163.631 39.24C163.73 39.08 163.866 38.8606 163.99 38.68C164.168 39.1314 164.371 39.9743 164.371 41.096C164.372 42.7097 163.95 44.0434 163.214 44.7554C162.29 45.6514 161.649 55.5171 163.567 57.8851C163.701 58.0497 163.822 58.2131 163.94 58.3709C165.566 60.5554 166.998 61.1766 173.885 57.9617C177.225 56.4017 181.957 55.6954 187.436 54.8783C196.537 53.52 206.853 51.9811 215.463 45.9726C216.587 45.188 217.614 44.3686 218.553 43.5291C218.237 44.1543 217.983 44.8303 217.77 45.7211C216.741 50.0263 217.566 55.3269 219.823 58.9114C221.109 60.9537 222.754 62.2417 224.582 62.6354C227.808 63.3314 231.18 61.6389 233.829 57.9908C236.799 53.8994 237.043 49.2589 237.279 44.772C237.306 44.2794 237.331 43.7874 237.361 43.2971C237.497 41.044 237.826 38.5589 238.231 36.052C238.428 36.6263 238.599 37.092 238.754 37.5149C239.226 38.8006 239.537 39.6497 240.029 42.1411C240.593 44.9989 240.503 49.4583 240.415 53.7703C240.357 56.652 240.302 59.3737 240.441 61.552C240.647 64.8109 240.769 67.7171 240.815 70.3331C239.887 72.8743 239.087 75.8097 238.205 79.0429C236.504 85.2788 234.387 93.04 230.405 101.513C230.323 101.687 230.166 101.953 229.984 102.26C229.054 103.834 227.498 106.47 228.566 108.826C229.137 110.086 230.222 111.062 231.887 111.919C231.411 115.014 231.424 118.755 232.213 124.273C233.398 132.569 236.674 137.101 239.63 139.555C239.679 140.325 239.814 141.145 239.975 141.954C240.599 145.079 241.565 146.824 242.683 148.845C243.451 150.234 244.322 151.807 245.255 154.135C245.319 154.294 245.398 154.477 245.491 154.693C246.045 155.978 247.197 158.65 248.454 164.487L248.662 165.459C249.785 170.699 250.25 172.868 252.305 173.77C253.749 174.402 255.169 173.956 256.31 173.596C257.343 173.271 257.998 173.087 258.43 173.425C258.981 173.855 258.905 174.925 258.831 175.959C258.745 177.175 258.647 178.553 259.679 179.265C260.495 179.828 261.69 179.967 262.958 179.645C264.978 179.131 266.772 177.582 267.879 175.393C269.283 172.618 268.538 170.494 267.818 168.44C267.199 166.675 266.559 164.85 266.977 162.267C267.375 159.813 272.285 153.68 279.081 145.191L280.207 143.784C281.014 142.774 284.978 137.453 283.686 131.824C281.873 123.925 277.457 120.181 273.679 117.836C276.293 117.586 278.218 117.055 278.973 116.13C279.489 115.499 279.559 114.709 279.17 113.905C275.087 105.469 273.025 99.1508 272.142 94.608C272.782 93.2874 273.411 92.0834 273.949 91.052C275.255 88.548 275.702 87.6497 275.625 87C275.41 85.2149 274.623 83.9503 273.521 83.6171C272.741 83.3817 271.941 83.6571 271.328 84.3743C270.078 85.8383 269.533 89.108 270.478 94.3714C267.295 101.036 264.003 110.378 269.383 116.449C260.268 116.408 246.391 114.623 240.828 113.201C237.881 112.447 235.488 111.748 233.692 110.986C234.198 108.517 235.033 106.41 236.012 103.939C236.671 102.275 237.419 100.39 238.165 98.1389L238.205 98.0166C240.717 90.4297 242.645 84.6086 242.42 70.5743C243.501 67.668 244.737 65.4217 246.499 63.9109C247.792 62.8028 248.998 63.6343 251.867 66.1126C255.234 69.02 259.853 73.0017 267.338 72.396C272.366 71.9903 274.767 64.6143 274.866 59.5069C275.031 51.0457 271.799 47.6149 269.059 46.2263C265.413 44.3789 260.951 45.3623 258.429 47.2886C254.385 50.3777 253.903 53.3389 253.516 55.7183C253.373 56.6006 253.246 57.3771 252.955 58.0451C251.646 56.0508 249.674 46.0411 251.838 39.536C252.955 36.1754 254.989 34.5223 257.86 34.6343C258.969 34.676 260.206 34.6766 261.515 34.6771C266.487 34.6789 272.675 34.6817 274.557 37.0846C275.14 37.8303 275.274 38.7989 274.966 40.0469C274.563 41.6789 275.16 43.1531 276.647 44.1977C279.631 46.2931 285.679 46.2714 289.188 44.2269C288.667 45.9463 286.803 49.672 285.429 51.5834C284.185 53.3126 282.817 54.936 281.493 56.5051C279.403 58.984 277.598 61.124 276.869 63.0057C275.91 65.4789 274.526 70.0771 276.021 73.0823C276.653 74.3497 277.709 75.2023 279.162 75.6166C280.538 76.0074 281.706 74.8463 284.741 70.9051C289.722 64.4349 292.442 59.9491 292.469 59.9046C294.721 56.1749 296.331 53.2446 297.626 50.8903C298.985 48.4177 300.059 46.4646 301.311 44.5771C303.421 41.3954 304.245 38.0937 304.905 35.4406C305.014 35.0051 305.117 34.5983 305.217 34.2211C306.093 33.9309 306.919 33.8337 307.608 34.1983C309.253 35.0657 312.091 42.6851 313.151 46.5263C316.451 58.4817 322.807 62.1611 324.895 63.3703C325.063 63.4674 325.197 63.544 325.289 63.6051C328.003 65.4034 330.255 66.2486 332.862 67.2269C334.399 67.804 336.036 68.4183 337.935 69.3C339.8 70.4697 341.634 71.4583 343.417 72.2549C343.946 72.5777 344.494 72.9223 345.062 73.2909C345.645 73.6686 346.61 74.0514 347.728 74.4949C349.869 75.344 353.105 76.6269 353.674 78.144C354.517 80.3966 353.865 82.056 353.037 84.156C352.447 85.6554 351.779 87.3543 351.608 89.4988C351.231 94.2326 353.195 97.2989 355.311 100.512C355.362 101.685 355.456 102.816 355.549 103.936C355.799 106.945 356.059 110.057 355.45 113.884C354.585 119.334 352.126 121.958 349.012 125.281C346.92 127.513 344.549 130.042 342.306 133.861C340.775 136.467 339.482 139.214 338.426 142.095C336.062 144.118 333.796 146.486 331.799 149.58C328.226 155.12 320.63 168.56 327.258 173.697C328.461 174.629 331.819 175.027 335.823 175.134C335.911 175.748 336.006 176.366 336.107 176.986C338.058 188.971 341.451 195.927 344.178 201.516C347.337 207.99 349.619 212.667 348.567 221.694C348.026 226.346 347.579 233.698 349.945 243.783C351.234 249.28 351.388 249.802 352.859 254.795L353.529 257.071C355.4 263.443 355.709 268.218 355.957 272.054C356.025 273.118 356.089 274.101 356.181 275.007C354.922 277.533 353.366 279.077 352.105 280.328C350.731 281.691 349.646 282.769 350.042 284.303C350.997 287.997 359.854 288.401 365.039 288.313C439.268 287.063 490.931 295.929 518.589 314.679C518.954 314.927 519.451 314.831 519.703 314.466C519.949 314.1 519.851 313.603 519.486 313.354Z" fill="#E0E3E2"/>
</svg>
